<?xml version="1.0" encoding="UTF-8" standalone="no"?>
<!-- Created with Inkscape (http://www.inkscape.org/) -->

<svg
   xmlns:dc="http://purl.org/dc/elements/1.1/"
   xmlns:cc="http://creativecommons.org/ns#"
   xmlns:rdf="http://www.w3.org/1999/02/22-rdf-syntax-ns#"
   xmlns:svg="http://www.w3.org/2000/svg"
   xmlns="http://www.w3.org/2000/svg"
   xmlns:sodipodi="http://sodipodi.sourceforge.net/DTD/sodipodi-0.dtd"
   xmlns:inkscape="http://www.inkscape.org/namespaces/inkscape"
   width="250"
   height="250"
   viewBox="0 0 250 250"
   id="svg4134"
   version="1.1"
   inkscape:version="0.91 r13725"
   sodipodi:docname="drawing.svg">
  <defs
     id="defs4136" />
  <sodipodi:namedview
     id="base"
     pagecolor="#ffffff"
     bordercolor="#666666"
     borderopacity="1.0"
     inkscape:pageopacity="0.0"
     inkscape:pageshadow="2"
     inkscape:zoom="1.9746054"
     inkscape:cx="93.635731"
     inkscape:cy="197.35852"
     inkscape:document-units="px"
     inkscape:current-layer="layer1"
     showgrid="false"
     units="px"
     inkscape:window-width="1855"
     inkscape:window-height="1176"
     inkscape:window-x="65"
     inkscape:window-y="24"
     inkscape:window-maximized="1" />
  <metadata
     id="metadata4139">
    <rdf:RDF>
      <cc:Work
         rdf:about="">
        <dc:format>image/svg+xml</dc:format>
        <dc:type
           rdf:resource="http://purl.org/dc/dcmitype/StillImage" />
        <dc:title></dc:title>
      </cc:Work>
    </rdf:RDF>
  </metadata>
  <g
     inkscape:label="Layer 1"
     inkscape:groupmode="layer"
     id="layer1"
     transform="translate(0,-802.36211)">
    <path
	fill="#111111"
	fill-opacity="1"
       d="m 90.763299,851.87356 a 45.952768,45.952768 0 0 0 -45.9529,45.95289 45.952768,45.952768 0 0 0 36.49932,44.91539 45.952768,45.952768 0 0 1 34.265501,-30.76556 45.952768,45.952768 0 0 1 -2.2914,-14.14983 45.952768,45.952768 0 0 1 11.71008,-30.57447 45.952768,45.952768 0 0 0 -34.230601,-15.37842 z m 34.230601,15.37842 a 45.952768,45.952768 0 0 1 11.72141,30.57447 45.952768,45.952768 0 0 1 -2.27046,14.11492 45.952768,45.952768 0 0 1 34.22798,30.84323 45.952768,45.952768 0 0 0 36.51677,-44.95815 45.952768,45.952768 0 0 0 -45.95289,-45.95289 45.952768,45.952768 0 0 0 -34.24281,15.37842 z m 43.67893,75.53262 a 45.952768,45.952768 0 0 1 -9.43612,0.99474 45.952768,45.952768 0 0 1 -34.2306,-15.37929 45.952768,45.952768 0 0 1 -34.242811,15.37929 45.952768,45.952768 0 0 1 -9.45358,-1.0375 45.952768,45.952768 0 0 0 -2.26261,14.15593 A 45.952768,45.952768 0 0 0 125,1002.8507 45.952768,45.952768 0 0 0 170.9529,956.89777 45.952768,45.952768 0 0 0 168.67283,942.7846 Z m -43.66672,-14.38455 a 45.952768,45.952768 0 0 0 9.43874,-16.45868 45.952768,45.952768 0 0 0 -9.44485,-0.99649 45.952768,45.952768 0 0 0 -9.42478,1.0314 45.952768,45.952768 0 0 0 9.43089,16.42377 z"
       id="sign"
       inkscape:connector-curvature="0" />
    <text
       xml:space="preserve"
	fill="#CCCCCC"
       style="font-style:normal;font-variant:normal;font-weight:bold;font-stretch:normal;font-size:49.69375229px;line-height:125%;font-family:'Bitstream Charter';-inkscape-font-specification:'Bitstream Charter, Bold';text-align:start;letter-spacing:0px;word-spacing:0px;writing-mode:lr-tb;text-anchor:start;fill-opacity:1;"
       x="59.539387"
       y="990.6817"
       id="text"
       sodipodi:linespacing="125%"><tspan
         sodipodi:role="line"
         id="tspan4197"
         x="59.539387"
         y="990.6817">LOGO</tspan></text>
  </g>
</svg>
