<?xml version="1.0" encoding="UTF-8" standalone="no"?>
<svg id="svg2" xmlns:rdf="http://www.w3.org/1999/02/22-rdf-syntax-ns#" xmlns="http://www.w3.org/2000/svg" height="105" width="250" version="1.1" xmlns:cc="http://creativecommons.org/ns#" xmlns:dc="http://purl.org/dc/elements/1.1/" viewBox="0 0 250 105">
 <g id="layer1" transform="translate(0 -947.36)">
  <path id="path3364" fill="#000000" d="m63.51 947.34s-54.883 58.267-62.807 65.317l64.079-53.84 27.944 17.92-29.216-29.44zm-62.807 65.36-0.7028 0.6c0.15952-0.1147 0.40789-0.3276 0.7028-0.59zm153.9-65.36l-35.719 35.426 39.724-13.026-4.2271-13.358 46.216 49.481 2.4615-11.496 46.94 46.63-47.61-63.1-7.46 12.26-40.33-42.82zm-72.404 38.749c-6.9354 0-11.631 4.98-11.631 12.254 0 7.4532 4.7308 12.469 11.631 12.469 6.8287 0 11.629-4.98 11.629-12.362 0-7.0949-4.6579-12.362-11.629-12.362zm-37.974 0.50154v0.6803c2.703 0.17916 3.1299 0.50128 3.1299 3.3321v15.588c0 2.795-0.3557 3.2606-3.1299 3.4397v0.6804h9.9942c3.5922 0 6.7573-0.8593 8.9624-2.2926 3.1654-2.0426 4.8369-5.411 4.8369-9.6751 0-3.6908-1.2091-6.4849-3.5209-8.4916-2.4185-2.1141-6.0814-3.2609-10.669-3.2609h-9.6032zm51.334 0v0.6803c2.9164 0.17916 3.3796 0.64521 3.3796 3.3685v14.262c0 4.0133-0.49826 4.5141-3.4503 4.7291v0.6804h8.3216v-0.6804c-2.7386-0.1433-3.3073-0.7875-3.3073-4.7291v-14.262l8.9624 19.671h0.49781l9.0692-20.496v16.089c0 2.974-0.39077 3.5468-3.2005 3.7259v0.6804h9.958v-0.6804c-2.5963-0.1791-3.1299-0.7879-3.1299-3.332v-15.695c0-2.6874 0.53463-3.2962 3.0954-3.3321v-0.6803h-7.0779l-7.86 17.988-8.2165-17.988h-7.0418zm31.536 0v0.6803c2.6675 0.14333 3.0937 0.68044 3.0937 3.3321v15.624c0 2.7591-0.35509 3.2241-3.0937 3.4032v0.6804h19.17l1.6347-6.0551h-0.99563c-1.6005 3.7983-3.1289 4.7291-8.2148 4.7291h-1.2816c-2.6319 0-3.5915-0.1783-3.5915-1.6833v-8.7068h5.3709c3.0587 0 3.5919 0.46442 4.0187 3.4744h0.81822v-8.384h-0.81822c-0.4268 2.8308-0.96 3.4397-4.0187 3.4397h-5.3709v-7.8824c0-1.1466 0.24955-1.2912 1.2454-1.2912h4.6578c4.1257 0 4.9442 0.5375 5.4777 3.7624h0.88884l-0.14126-5.123h-18.85zm22.524 0v0.6803c2.8097 0.17916 3.2022 0.71689 3.2022 3.3685v15.192c0 3.1175-0.42693 3.6556-3.2367 3.7989v0.6804h10.029v-0.6804c-2.5963-0.215-3.1643-0.5382-3.1643-3.2973v-6.6277l0.92328-0.7532 3.5571 3.6913c2.8097 2.9383 4.8731 5.1241 4.8731 6.0915 0 0.5017-0.46203 0.8232-1.4934 0.8589l-0.96119 0.036v0.6804h10.776v-0.6804c-1.636 0-2.5963-0.6457-5.5483-3.9064l-8.3216-9.1719 6.6146-6.3795c2.4541-2.3649 3.1298-2.7225 5.5483-2.9017v-0.6803h-9.2104v0.6803l0.88883 0.0365c1.1737 0.0359 1.4573 0.39403 1.4573 1.1107 0 0.89581-1.0661 1.9348-2.7733 3.5472l-6.3304 5.8762v-7.1657c0-2.7591 0.24849-3.19 3.2005-3.405v-0.68029h-10.03zm-67.457 0.7879c1.6716 0 3.0949 0.60841 4.3753 1.6834 2.0273 1.72 3.2367 5.0887 3.2367 9.1736 0 4.2999-0.9963 7.6684-2.9524 9.5675-1.2448 1.1824-2.8106 1.7198-4.5889 1.7198-1.636 0-3.2005-0.5014-4.4097-1.6122-2.1695-2.0066-3.2005-5.2323-3.2005-9.4964 0-3.4041 0.92356-6.8798 2.4529-8.6356 1.3871-1.6125 3.1661-2.4001 5.0867-2.4001zm-29.294 0.53799c3.5566 0 5.796 0.60798 7.8944 2.4713 2.2407 1.9708 3.3796 4.4439 3.3796 8.1705 0 4.0491-1.2087 6.8802-3.6983 8.5645-2.134 1.4332-4.0916 1.862-7.7549 1.862-1.3871 0-1.707-0.4291-1.707-1.6833v-17.88c0-1.1825 0.53467-1.5046 1.8862-1.5046zm45.778 26.785c-13.037-0.019-28.704 0.4545-53.819 1.9073 66.349-0.7839 66.477 1.8461 128.67 0-38.692-0.4828-53.118-1.8766-74.846-1.9073zm65.596 4.8871c-1.9562 0-2.9882 0.5372-5.5845 2.8304-1.8494 1.6484-2.1341 2.2571-3.2367 6.987l-3.4141 14.8 2.5252-1.0395 2.0981-8.3493c0.35566-0.2509 0.78153-0.5004 0.85267-0.5363 2.4541-1.5765 3.9479-2.3653 4.3391-2.3653 0.24896 0 0.42719 0.2502 0.42719 0.5727 0 0.43-0.14113 1.1107-0.63907 3.0457-1.1025 4.3-1.5296 6.3786-1.5296 7.3462 0 0.43 0.14104 0.8603 0.53226 1.541 1.9561-1.0032 4.5172-2.6519 6.4733-4.0853l0.24977-1.0394c-3.0231 1.7916-3.5219 2.0426-3.9842 2.0426-0.32009 0-0.53226-0.3587-0.53226-0.932 0-0.7167 0.21358-1.7561 0.8182-4.0852 1.1381-4.2283 1.707-6.4133 1.707-6.5566 0-0.3582-0.28523-0.6091-0.74759-0.6091-0.74689 0-3.2006 1.3615-7.6464 4.264l1.2092-4.802c0.85358-3.5117 1.2085-4.6212 1.6709-5.517 0.49792-1.0034 1.2446-1.47 2.2048-1.47 0.46236 0 0.74716 0.035 2.1342 0.3228l1.5296-2.1866c-0.64019-0.1433-0.92378-0.1787-1.4573-0.1787zm-52.495 0.8243-4.9075 6.7717 0.85266 0.2152c2.2051-2.6157 2.9165-3.4041 5.6551-6.1991l-1.6002-0.7878zm-17.255 2.2925c-3.8767 0-7.397 1.6127-10.242 4.6944-2.8809 3.1174-4.6957 7.5249-4.6957 11.287 0 3.4757 1.885 5.6263 4.9437 5.6263 2.2051 0 4.09-0.5742 7.2554-2.1866-0.5335 2.1498-1.1734 4.4805-1.4935 5.2688-0.71132 1.9348-1.7427 2.723-3.6277 2.723-1.0314 0-2.7743-0.1438-3.8413-0.3229l-1.4934 2.3655c1.2804 0.1432 1.8501 0.1787 2.5614 0.1787 2.8453 0 5.2628-1.2897 7.6102-4.0489 1.5293-1.7558 2.1691-3.2606 3.2005-7.4173l1.3884-5.5898h0.74586l1.6364-1.0032c-1.4226-0.1074-4.6953-0.1804-8.0029-0.1804l-2.1687 1.1106v0.2882c1.7783-0.1075 3.5201-0.1795 5.1918-0.2152l-1.2798 5.1594c-1.4938 1.4334-3.6281 2.4003-5.2641 2.4003-2.6319 0-4.2667-2.0776-4.2667-5.3383 0-6.9875 4.6945-13.509 9.6738-13.509 1.4582 0 2.7022 0.6084 3.3779 1.6835 0.46235 0.7165 0.64099 1.3255 0.85439 2.8304l2.632-2.9728c-0.67576-2.0424-1.9926-2.8323-4.6957-2.8323zm-25.123 5.2671c-0.88916 0.2509-1.2087 0.3587-2.4891 0.9319 0.35566 0.9317 0.46164 1.5403 0.46164 2.5078 0 2.365-0.88962 5.1605-2.3478 7.4538-1.2448 1.9349-3.0574 3.4396-4.1599 3.4396-0.71132 0-1.2092-0.6812-1.2092-1.6487 0-1.5408 0.53273-3.4028 2.8801-10.498-0.96029 0.3226-1.3517 0.429-2.632 0.7515-0.2134 0.6807-0.35494 1.1821-0.46164 1.5046-1.2804 4.3-1.6363 5.0885-2.7388 6.5217-1.3515 1.7917-3.2727 3.1899-4.3753 3.1899-0.60463 0-0.95946-0.6102-0.95946-1.5776 0-1.5408 0.60439-3.5472 1.6002-5.3747 0.88916-1.5408 1.6721-2.5437 3.6639-4.5504v-0.3574c0-0.073-0.000605-0.1448-0.03617-0.2882h-0.39102c-0.56906 0.4301-0.85437 0.5034-1.459 0.5034-1.0314 0-3.1657-0.036-4.0549-0.073-0.39123-0.035-0.7105-0.034-0.95946-0.034-0.60463 0-0.99583 0.1067-1.2092 0.3575-0.53349 0.5375-1.2456 2.1851-2.0636 4.8367l0.60461 0.8607c0.67576-1.7199 0.85347-2.186 1.1024-2.6517 0.56906-0.9317 1.2106-1.3606 2.0998-1.3606 0.17783 0 0.63956-0.0008 1.1731 0.034 0.28453 0.035 0.60491 0.036 0.92501 0.036 0.74689 0 0.99623-0.035 1.6364-0.2863l-1.2092 1.3605c-1.5293 1.6842-2.028 2.3301-2.6682 3.5126-0.92472 1.684-1.4934 3.5833-1.4934 5.0883 0 1.29 0.78252 2.185 1.9206 2.185 1.8494 0 3.9468-1.505 6.8988-4.8732-0.39123 1.1824-0.53227 1.8989-0.53227 2.8305 0 1.2901 0.71139 2.0427 1.9206 2.0427 4.4813 0 11.451-8.7426 11.451-14.404 0-0.9675-0.28421-1.5773-0.88884-1.9715zm40.778 1.1836c-1.4226 0-3.6997 1.0386-5.7981 2.6154-2.2762 1.7198-3.8757 5.4474-3.8757 8.9947 0 2.1858 1.2087 3.582 3.0937 3.582 0.99585 0 1.9916-0.3582 3.6277-1.2183 1.7783-1.0032 2.953-1.8977 3.5932-2.7576 1.4227-1.935 2.5597-5.4465 2.5597-7.9189 0-1.935-1.3155-3.2973-3.2005-3.2973zm10.222 0c-0.46235 0-3.5924 1.5412-5.7619 2.8669l-0.1068 0.9667c1.9206-1.0033 2.1346-1.0742 2.5614-1.0742 0.46237 0 0.67524 0.2499 0.67524 0.7514 0 0.5017-0.35523 2.1869-0.78203 3.7277l-2.1342 7.8478 2.7388-1.0395 2.6665-10.213c1.2092-0.8959 2.0283-1.2529 2.9886-1.2529 0.78246 0 1.2443 0.2863 1.8845 1.1106l1.0662-3.405c-0.67575-0.215-0.96036-0.2863-1.316-0.2863-0.64019 0-1.3858 0.3223-2.3461 1.0031l-2.0981 1.5411c0.0356-0.2866 0.10506-0.4652 0.10506-0.5727 0.28454-1.1825 0.3204-1.3984 0.3204-1.5776 0-0.215-0.21268-0.3939-0.46164-0.3939zm14.147 0c-1.4582 0-2.1345 0.1435-3.0592 0.7167-1.2804 0.7525-2.7743 1.8638-3.2367 2.3654-1.316 1.505-2.8095 6.3424-2.8095 9.2448 0 1.72 0.56985 2.8652 1.459 2.8652 0.78245 0 1.9552-0.7164 6.401-3.9412-0.35567 1.6483-0.53227 2.7598-0.53227 3.1898 0 0.4658 0.21279 0.7514 0.56845 0.7514 0.4268 0 0.42753 0.0001 3.2728-1.8274 1.0314-0.6808 1.849-1.2528 3.2005-2.2561l0.0362-1.0395c-2.6675 1.7916-3.2014 2.1138-3.5571 2.1138-0.24897 0-0.42719-0.2867-0.42719-0.7168 0-0.9317 0.85385-4.873 2.1342-9.6387 0.39123-0.5375 0.46274-0.6444 1.0318-1.2895-1.7072-0.3941-2.9527-0.5379-4.4821-0.5379zm13.904 0c-0.64019 0-1.0313 0.1431-2.3117 1.0031-2.6675 1.6841-3.238 2.2222-4.0204 3.6913-0.99585 1.935-1.7415 4.9804-1.7415 7.2021 0 2.0782 0.95983 3.2956 2.5959 3.2956 1.7072 0 4.6234-1.4316 7.86-3.8683l0.0707-1.1471c-2.7386 1.9708-4.6238 2.9745-5.7619 2.9745-1.2804 0-2.0274-1.0047-2.0274-2.7247 0-1.7199 0.42839-4.0133 1.1042-5.6974 0.71133-1.8993 1.6351-2.8652 2.6665-2.8652 0.85359 0 1.3156 0.6794 1.4934 2.256l2.0636-1.2182c0.0356-0.1793 0.0362-0.3582 0.0362-0.3939 0-1.5409-0.78261-2.5078-2.0274-2.5078zm-15.966 1.6487c0.64019 0 1.7427 0.1785 3.0231 0.4651-0.71134 2.7233-0.96179 3.5469-0.99735 3.7259-0.21341 0.896-0.39122 1.793-0.60461 2.7248-0.0356 0.1791-0.14084 0.608-0.31867 1.2529l-0.67697 0.4669c-2.0984 1.5407-3.1649 2.1502-3.8051 2.1502-0.56906 0-0.92501-0.646-0.92501-1.7928 0-1.7916 0.56985-4.2276 1.459-6.2701 0.85359-1.9707 1.6364-2.7229 2.8456-2.7229zm-24.157 0.034c1.4226 0 2.3117 1.3974 2.3117 3.5473 0 1.5051-0.4975 3.369-1.3867 5.1248-0.99585 2.0426-2.2762 3.1534-3.6277 3.1534-1.4582 0-2.3823-1.326-2.3823-3.3685 0-4.1566 2.5953-8.457 5.085-8.457z"/>
 </g>
</svg>
