<?xml version="1.0" encoding="UTF-8" standalone="no"?>
<svg
   xmlns:dc="http://purl.org/dc/elements/1.1/"
   xmlns:cc="http://creativecommons.org/ns#"
   xmlns:rdf="http://www.w3.org/1999/02/22-rdf-syntax-ns#"
   xmlns:svg="http://www.w3.org/2000/svg"
   xmlns="http://www.w3.org/2000/svg"
   version="1.1"
   id="svg2"
   viewBox="0 0 283.46457 118.20473"
   height="33.360001mm"
   width="80mm">
  <defs
     id="defs4" />
  <metadata
     id="metadata7">
    <rdf:RDF>
      <cc:Work
         rdf:about="">
        <dc:format>image/svg+xml</dc:format>
        <dc:type
           rdf:resource="http://purl.org/dc/dcmitype/StillImage" />
        <dc:title></dc:title>
      </cc:Work>
    </rdf:RDF>
  </metadata>
  <g
     transform="translate(0,-934.15748)"
     id="layer1">
    <path
       id="path3364"
       transform="translate(0,934.15748)"
       d="M 72.011719 0.017578125 C 72.011719 0.017578125 9.7816972 65.593003 0.796875 73.527344 L 73.453125 12.980469 L 105.13867 33.142578 L 72.011719 0.017578125 z M 0.796875 73.527344 L 0 74.191406 C 0.18087148 74.06221 0.46249374 73.82263 0.796875 73.527344 z M 175.29883 0.017578125 L 134.79883 39.886719 L 179.83984 25.226562 L 175.04688 10.193359 L 227.44922 65.880859 L 230.24023 52.943359 L 283.46484 105.45312 L 229.48242 34.404297 L 221.01758 48.207031 L 175.29883 0.017578125 z M 93.203125 43.626953 C 85.339341 43.626953 80.015625 49.231569 80.015625 57.417969 C 80.015625 65.806009 85.379668 71.451172 93.203125 71.451172 C 100.94593 71.451172 106.38867 65.846413 106.38867 57.539062 C 106.38867 49.554302 101.10724 43.626953 93.203125 43.626953 z M 50.146484 44.191406 L 50.146484 44.957031 C 53.211343 45.158671 53.695312 45.521191 53.695312 48.707031 L 53.695312 66.25 C 53.695312 69.3955 53.291998 69.919494 50.146484 70.121094 L 50.146484 70.886719 L 61.478516 70.886719 C 65.551552 70.886719 69.140345 69.919741 71.640625 68.306641 C 75.229736 66.007941 77.125 62.216899 77.125 57.417969 C 77.125 53.264279 75.754074 50.119648 73.132812 47.861328 C 70.39057 45.482028 66.237351 44.191406 61.035156 44.191406 L 50.146484 44.191406 z M 108.35156 44.191406 L 108.35156 44.957031 C 111.65838 45.158671 112.18359 45.683187 112.18359 48.748047 L 112.18359 64.798828 C 112.18359 69.315498 111.61863 69.879094 108.27148 70.121094 L 108.27148 70.886719 L 117.70703 70.886719 L 117.70703 70.121094 C 114.60184 69.959794 113.95703 69.234798 113.95703 64.798828 L 113.95703 48.748047 L 124.11914 70.886719 L 124.68359 70.886719 L 134.9668 47.820312 L 134.9668 65.927734 C 134.9668 69.274834 134.52373 69.919494 131.33789 70.121094 L 131.33789 70.886719 L 142.62891 70.886719 L 142.62891 70.121094 C 139.68503 69.919494 139.08008 69.234294 139.08008 66.371094 L 139.08008 48.707031 C 139.08008 45.682501 139.68628 44.997361 142.58984 44.957031 L 142.58984 44.191406 L 134.56445 44.191406 L 125.65234 64.435547 L 116.33594 44.191406 L 108.35156 44.191406 z M 144.10938 44.191406 L 144.10938 44.957031 C 147.1339 45.118341 147.61719 45.722821 147.61719 48.707031 L 147.61719 66.291016 C 147.61719 69.396216 147.21456 69.919494 144.10938 70.121094 L 144.10938 70.886719 L 165.8457 70.886719 L 167.69922 64.072266 L 166.57031 64.072266 C 164.75559 68.346926 163.02263 69.394531 157.25586 69.394531 L 155.80273 69.394531 C 152.81852 69.394531 151.73047 69.1938 151.73047 67.5 L 151.73047 57.701172 L 157.82031 57.701172 C 161.28844 57.701172 161.89302 58.223848 162.37695 61.611328 L 163.30469 61.611328 L 163.30469 52.175781 L 162.37695 52.175781 C 161.89302 55.361621 161.28844 56.046875 157.82031 56.046875 L 151.73047 56.046875 L 151.73047 47.175781 C 151.73047 45.885311 152.01342 45.722656 153.14258 45.722656 L 158.42383 45.722656 C 163.10177 45.722656 164.02987 46.327591 164.63477 49.957031 L 165.64258 49.957031 L 165.48242 44.191406 L 144.10938 44.191406 z M 169.64844 44.191406 L 169.64844 44.957031 C 172.83428 45.158671 173.2793 45.763837 173.2793 48.748047 L 173.2793 65.845703 C 173.2793 69.354203 172.79522 69.959794 169.60938 70.121094 L 169.60938 70.886719 L 180.98047 70.886719 L 180.98047 70.121094 C 178.03659 69.879094 177.39258 69.515356 177.39258 66.410156 L 177.39258 58.951172 L 178.43945 58.103516 L 182.47266 62.257812 C 185.6585 65.564642 187.99805 68.024481 187.99805 69.113281 C 187.99805 69.677881 187.47418 70.039778 186.30469 70.080078 L 185.21484 70.121094 L 185.21484 70.886719 L 197.43359 70.886719 L 197.43359 70.121094 C 195.57854 70.121094 194.48973 69.394359 191.14258 65.724609 L 181.70703 55.402344 L 189.20703 48.222656 C 191.9896 45.561076 192.75581 45.158671 195.49805 44.957031 L 195.49805 44.191406 L 185.05469 44.191406 L 185.05469 44.957031 L 186.0625 44.998047 C 187.39329 45.038347 187.71484 45.441497 187.71484 46.248047 C 187.71484 47.256217 186.50601 48.425514 184.57031 50.240234 L 177.39258 56.853516 L 177.39258 48.789062 C 177.39258 45.683882 177.67433 45.198991 181.02148 44.957031 L 181.02148 44.191406 L 169.64844 44.191406 z M 93.162109 45.078125 C 95.057482 45.078125 96.671272 45.762846 98.123047 46.972656 C 100.4217 48.908366 101.79297 52.699585 101.79297 57.296875 C 101.79297 62.136125 100.6633 65.927153 98.445312 68.064453 C 97.033864 69.395253 95.258542 70 93.242188 70 C 91.387141 70 89.613309 69.435647 88.242188 68.185547 C 85.782235 65.927247 84.613281 62.296967 84.613281 57.498047 C 84.613281 53.666967 85.660466 49.755317 87.394531 47.779297 C 88.967288 45.964577 90.984445 45.078125 93.162109 45.078125 z M 59.947266 45.683594 C 63.979976 45.683594 66.519139 46.367834 68.898438 48.464844 C 71.439044 50.682834 72.730469 53.466146 72.730469 57.660156 C 72.730469 62.217126 71.360006 65.403468 68.537109 67.298828 C 66.117484 68.911928 63.897832 69.394531 59.744141 69.394531 C 58.171384 69.394531 57.808594 68.9115 57.808594 67.5 L 57.808594 47.376953 C 57.808594 46.046153 58.414837 45.683594 59.947266 45.683594 z M 111.85352 75.828125 C 97.071245 75.807368 79.307363 76.339609 50.830078 77.974609 C 126.0601 77.092309 126.2054 80.052309 196.71875 77.974609 C 152.84698 77.431234 136.49063 75.862721 111.85352 75.828125 z M 186.23047 81.328125 C 184.01248 81.328125 182.84232 81.932772 179.89844 84.513672 C 177.80143 86.368672 177.47866 87.053753 176.22852 92.376953 L 172.35742 109.0332 L 175.2207 107.86328 L 177.59961 98.466797 C 178.00288 98.184497 178.48576 97.903581 178.56641 97.863281 C 181.34898 96.088881 183.04273 95.201172 183.48633 95.201172 C 183.76861 95.201172 183.9707 95.482803 183.9707 95.845703 C 183.9707 96.329603 183.81067 97.095738 183.24609 99.273438 C 181.99595 104.11274 181.51172 106.45212 181.51172 107.54102 C 181.51172 108.02492 181.67164 108.50919 182.11523 109.27539 C 184.33322 108.14629 187.23709 106.29083 189.45508 104.67773 L 189.73828 103.50781 C 186.31047 105.52421 185.74495 105.80664 185.2207 105.80664 C 184.85776 105.80664 184.61719 105.40301 184.61719 104.75781 C 184.61719 103.95121 184.85936 102.78146 185.54492 100.16016 C 186.83538 95.401556 187.48047 92.94255 187.48047 92.78125 C 187.48047 92.37805 187.15706 92.095703 186.63281 92.095703 C 185.78594 92.095703 183.00378 93.628031 177.96289 96.894531 L 179.33398 91.490234 C 180.30183 87.538134 180.70427 86.28945 181.22852 85.28125 C 181.7931 84.15205 182.63969 83.626953 183.72852 83.626953 C 184.25277 83.626953 184.57569 83.667334 186.14844 83.990234 L 187.88281 81.529297 C 187.15692 81.367997 186.83537 81.328125 186.23047 81.328125 z M 126.70898 82.255859 L 121.14453 89.876953 L 122.11133 90.119141 C 124.61161 87.175241 125.41826 86.288078 128.52344 83.142578 L 126.70898 82.255859 z M 107.14453 84.835938 C 102.74888 84.835938 98.757418 86.650941 95.53125 90.119141 C 92.264755 93.627541 90.207031 98.587866 90.207031 102.82227 C 90.207031 106.73397 92.34437 109.1543 95.8125 109.1543 C 98.31278 109.1543 100.44994 108.50806 104.03906 106.69336 C 103.43415 109.11296 102.70864 111.73585 102.3457 112.62305 C 101.53916 114.80065 100.36976 115.6875 98.232422 115.6875 C 97.062937 115.6875 95.086766 115.52582 93.876953 115.32422 L 92.183594 117.98633 C 93.63537 118.14763 94.281349 118.1875 95.087891 118.1875 C 98.314059 118.1875 101.05521 116.73606 103.7168 113.63086 C 105.45086 111.65486 106.17621 109.9612 107.3457 105.2832 L 108.91992 98.992188 L 109.76562 98.992188 L 111.62109 97.863281 C 110.00801 97.742281 106.2973 97.660156 102.54688 97.660156 L 100.08789 98.910156 L 100.08789 99.234375 C 102.10424 99.113375 104.07923 99.032487 105.97461 98.992188 L 104.52344 104.79883 C 102.8297 106.41193 100.40974 107.5 98.554688 107.5 C 95.570482 107.5 93.716797 105.16199 93.716797 101.49219 C 93.716797 93.628387 99.039752 86.289062 104.68555 86.289062 C 106.33896 86.289062 107.74941 86.973694 108.51562 88.183594 C 109.03987 88.990094 109.24242 89.675441 109.48438 91.369141 L 112.46875 88.023438 C 111.70253 85.724838 110.20939 84.835938 107.14453 84.835938 z M 78.658203 90.763672 C 77.650026 91.045972 77.287713 91.1673 75.835938 91.8125 C 76.239209 92.861 76.359375 93.545966 76.359375 94.634766 C 76.359375 97.296366 75.350676 100.44254 73.697266 103.02344 C 72.285817 105.20114 70.230609 106.89453 68.980469 106.89453 C 68.173928 106.89453 67.609375 106.12786 67.609375 105.03906 C 67.609375 103.30496 68.213412 101.20941 70.875 93.224609 C 69.786168 93.587609 69.3424 93.707412 67.890625 94.070312 C 67.648662 94.836513 67.488168 95.400772 67.367188 95.763672 C 65.915412 100.60297 65.511859 101.49042 64.261719 103.10352 C 62.72929 105.11982 60.550921 106.69336 59.300781 106.69336 C 58.61522 106.69336 58.212891 106.00677 58.212891 104.91797 C 58.212891 103.18387 58.898186 100.92584 60.027344 98.869141 C 61.035522 97.135141 61.923324 96.006347 64.181641 93.748047 L 64.181641 93.345703 C 64.181641 93.264703 64.180955 93.182784 64.140625 93.021484 L 63.697266 93.021484 C 63.052032 93.505384 62.72853 93.587891 62.042969 93.587891 C 60.873483 93.587891 58.453491 93.546859 57.445312 93.505859 C 57.001714 93.465859 56.639711 93.466797 56.357422 93.466797 C 55.671861 93.466797 55.228291 93.586841 54.986328 93.869141 C 54.381422 94.474041 53.574007 96.3283 52.646484 99.3125 L 53.332031 100.28125 C 54.098245 98.34555 54.299742 97.821075 54.582031 97.296875 C 55.227265 96.248375 55.954714 95.765625 56.962891 95.765625 C 57.164527 95.765625 57.688063 95.764688 58.292969 95.804688 C 58.615586 95.844687 58.978853 95.845703 59.341797 95.845703 C 60.188666 95.845703 60.471378 95.806038 61.197266 95.523438 L 59.826172 97.054688 C 58.092107 98.950088 57.526668 99.677013 56.800781 101.00781 C 55.752276 102.90311 55.107422 105.04067 55.107422 106.73438 C 55.107422 108.18618 55.994689 109.19336 57.285156 109.19336 C 59.382165 109.19336 61.760273 107.49968 65.107422 103.70898 C 64.663824 105.03978 64.503906 105.84603 64.503906 106.89453 C 64.503906 108.34633 65.31052 109.19336 66.681641 109.19336 C 71.762855 109.19336 79.666016 99.354122 79.666016 92.982422 C 79.666016 91.893522 79.343764 91.207272 78.658203 90.763672 z M 124.89453 92.095703 C 123.28145 92.095703 120.69961 93.264662 118.32031 95.039062 C 115.73937 96.974762 113.92578 101.16971 113.92578 105.16211 C 113.92578 107.62201 115.29626 109.19336 117.43359 109.19336 C 118.56275 109.19336 119.69182 108.79017 121.54688 107.82227 C 123.56323 106.69317 124.8952 105.68655 125.62109 104.71875 C 127.23418 102.54105 128.52344 98.589141 128.52344 95.806641 C 128.52344 93.628941 127.03187 92.095703 124.89453 92.095703 z M 136.48438 92.095703 C 135.96013 92.095703 132.41113 93.830166 129.95117 95.322266 L 129.83008 96.410156 C 132.00775 95.280956 132.25045 95.201172 132.73438 95.201172 C 133.25863 95.201172 133.5 95.482375 133.5 96.046875 C 133.5 96.611475 133.09721 98.508088 132.61328 100.24219 L 130.19336 109.07422 L 133.29883 107.9043 L 136.32227 96.410156 C 137.69339 95.401956 138.62211 95 139.71094 95 C 140.59814 95 141.12177 95.3224 141.84766 96.25 L 143.05664 92.417969 C 142.29043 92.175969 141.96772 92.095703 141.56445 92.095703 C 140.83856 92.095703 139.99313 92.458409 138.9043 93.224609 L 136.52539 94.958984 C 136.56569 94.636384 136.64453 94.435453 136.64453 94.314453 C 136.96715 92.983653 137.00781 92.740663 137.00781 92.539062 C 137.00781 92.297063 136.76666 92.095703 136.48438 92.095703 z M 152.52539 92.095703 C 150.87198 92.095703 150.10515 92.257144 149.05664 92.902344 C 147.60487 93.749244 145.91097 94.999853 145.38672 95.564453 C 143.89462 97.258153 142.20117 102.70225 142.20117 105.96875 C 142.20117 107.90445 142.84729 109.19336 143.85547 109.19336 C 144.74266 109.19336 146.07239 108.38721 151.11328 104.75781 C 150.71 106.61281 150.50977 107.86376 150.50977 108.34766 C 150.50977 108.87196 150.75103 109.19336 151.1543 109.19336 C 151.63823 109.19336 151.63906 109.19342 154.86523 107.13672 C 156.03471 106.37052 156.96171 105.72676 158.49414 104.59766 L 158.53516 103.42773 C 155.51063 105.44403 154.90522 105.80664 154.50195 105.80664 C 154.21966 105.80664 154.01758 105.484 154.01758 105 C 154.01758 103.9515 154.98573 99.515844 156.4375 94.152344 C 156.8811 93.547444 156.96218 93.427072 157.60742 92.701172 C 155.67172 92.257572 154.25946 92.095703 152.52539 92.095703 z M 168.29102 92.095703 C 167.56513 92.095703 167.1217 92.256809 165.66992 93.224609 C 162.64539 95.120009 161.99853 95.725506 161.11133 97.378906 C 159.98217 99.556606 159.13672 102.98407 159.13672 105.48438 C 159.13672 107.82327 160.22503 109.19336 162.08008 109.19336 C 164.01578 109.19336 167.32242 107.58214 170.99219 104.83984 L 171.07227 103.54883 C 167.96709 105.76683 165.82953 106.89648 164.53906 106.89648 C 163.08729 106.89648 162.24023 105.76578 162.24023 103.83008 C 162.24023 101.89438 162.72597 99.313269 163.49219 97.417969 C 164.29873 95.280569 165.34613 94.193359 166.51562 94.193359 C 167.48347 94.193359 168.00734 94.958022 168.20898 96.732422 L 170.54883 95.361328 C 170.58913 95.159628 170.58984 94.958269 170.58984 94.917969 C 170.58984 93.183869 169.70247 92.095703 168.29102 92.095703 z M 150.1875 93.951172 C 150.91339 93.951172 152.16345 94.152009 153.61523 94.474609 C 152.80868 97.539409 152.5247 98.466369 152.48438 98.667969 C 152.2424 99.676169 152.04079 100.68577 151.79883 101.73438 C 151.75853 101.93598 151.63914 102.41863 151.4375 103.14453 L 150.66992 103.66992 C 148.29062 105.40392 147.08136 106.08984 146.35547 106.08984 C 145.71023 106.08984 145.30664 105.36277 145.30664 104.07227 C 145.30664 102.05597 145.95277 99.314225 146.96094 97.015625 C 147.92879 94.797625 148.81638 93.951172 150.1875 93.951172 z M 122.79688 93.990234 C 124.40995 93.990234 125.41797 95.562822 125.41797 97.982422 C 125.41797 99.676222 124.85388 101.774 123.8457 103.75 C 122.71654 106.0487 121.26485 107.29883 119.73242 107.29883 C 118.07901 107.29883 117.03125 105.80651 117.03125 103.50781 C 117.03125 98.829913 119.97397 93.990234 122.79688 93.990234 z "
       style="font-style:normal;font-variant:normal;font-weight:normal;font-stretch:normal;font-size:40.32709503px;line-height:125%;font-family:STIX;-inkscape-font-specification:'STIX, Normal';text-align:center;letter-spacing:0px;word-spacing:0px;writing-mode:lr-tb;text-anchor:middle;fill:#000000;fill-opacity:1;stroke:none;stroke-width:1px;stroke-linecap:butt;stroke-linejoin:miter;stroke-opacity:1" />
  </g>
</svg>
