<?xml version="1.0" encoding="UTF-8" standalone="no"?>
<svg id="svg2" xmlns:rdf="http://www.w3.org/1999/02/22-rdf-syntax-ns#" xmlns="http://www.w3.org/2000/svg" viewBox="0 0 283.46457 118.20473" height="33.36mm" width="80mm" version="1.1" xmlns:cc="http://creativecommons.org/ns#" xmlns:dc="http://purl.org/dc/elements/1.1/">
 <path id="logo" fill="#FFFFFF" d="m72.012 0.017578s-62.23 65.575-71.215 73.51l72.656-60.548 31.687 20.163-33.128-33.125zm-71.215 73.509-0.79688 0.664c0.18087-0.129 0.46249-0.368 0.79688-0.664zm174.5-73.509l-40.5 39.869 45.041-14.66-4.793-15.033 52.402 55.688 2.791-12.938 53.225 52.51-53.99-71.056-8.46 13.803-45.72-48.189zm-82.097 43.609c-7.8638 0-13.188 5.6046-13.188 13.791 0 8.388 5.364 14.033 13.188 14.033 7.7428 0 13.186-5.6047 13.186-13.912 0-7.9848-5.2814-13.912-13.186-13.912zm-43.057 0.56445v0.76562c3.0649 0.20164 3.5488 0.56416 3.5488 3.75v17.543c0 3.1455-0.40331 3.6695-3.5488 3.8711v0.76562h11.332c4.073 0 7.6618-0.967 10.162-2.5801 3.5891-2.2986 5.4844-6.0897 5.4844-10.889 0-4.1537-1.3709-7.2983-3.9922-9.5566-2.7422-2.3793-6.8955-3.6699-12.098-3.6699h-10.889zm58.205 0v0.76562c3.3068 0.20164 3.832 0.72616 3.832 3.791v16.051c0 4.5166-0.56496 5.0803-3.9121 5.3223v0.76562h9.4356v-0.76562c-3.1052-0.16131-3.75-0.88628-3.75-5.3223v-16.051l10.162 22.139h0.56445l10.283-23.066v18.107c0 3.3471-0.44307 3.9917-3.6289 4.1934v0.76562h11.291v-0.76562c-2.9439-0.20164-3.5488-0.88678-3.5488-3.75v-17.664c0-3.0245 0.60621-3.7097 3.5098-3.75v-0.76562h-8.0254l-8.9121 20.244-9.3164-20.244h-7.9844zm35.758 0v0.76562c3.0245 0.16131 3.5078 0.7658 3.5078 3.75v17.584c0 3.1052-0.40263 3.6284-3.5078 3.8301v0.76562h21.736l1.8535-6.8145h-1.1289c-1.8147 4.2747-3.5477 5.3223-9.3144 5.3223h-1.4531c-2.9842 0-4.0723-0.20079-4.0723-1.8945v-9.7988h6.0898c3.4681 0 4.0727 0.52268 4.5566 3.9102h0.92774v-9.4355h-0.92774c-0.48392 3.1858-1.0885 3.8711-4.5566 3.8711h-6.0898v-8.8711c0-1.2905 0.28295-1.4531 1.4121-1.4531h5.2812c4.6779 0 5.606 0.60494 6.2109 4.2344h1.0078l-0.16016-5.7656h-21.373zm25.539 0v0.76562c3.1858 0.20164 3.6309 0.80681 3.6309 3.791v17.098c0 3.5085-0.48408 4.1141-3.6699 4.2754v0.76562h11.371v-0.76562c-2.9439-0.24196-3.5879-0.60575-3.5879-3.7109v-7.459l1.0469-0.84766 4.0332 4.1543c3.1858 3.3068 5.5254 5.7666 5.5254 6.8555 0 0.56458-0.52388 0.92647-1.6934 0.9668l-1.0898 0.04102v0.76562h12.219v-0.76562c-1.855 0-2.9439-0.72672-6.291-4.3965l-9.4356-10.322 7.5-7.1797c2.7826-2.6616 3.5488-3.064 6.291-3.2656v-0.76562h-10.443v0.76562l1.0078 0.04102c1.3308 0.04033 1.6523 0.44346 1.6523 1.25 0 1.0082-1.2088 2.1775-3.1445 3.9922l-7.1777 6.6133v-8.0645c0-3.1052 0.28176-3.5901 3.6289-3.832v-0.76562h-11.373zm-76.486 0.88672c1.8954 0 3.5092 0.68472 4.9609 1.8945 2.2986 1.9357 3.6699 5.7269 3.6699 10.324 0 4.8393-1.1297 8.6302-3.3477 10.768-1.413 1.331-3.188 1.936-5.205 1.936-1.855 0-3.6289-0.56431-5-1.8145-2.46-2.2583-3.6289-5.8886-3.6289-10.688 0-3.8311 1.0472-7.7427 2.7812-9.7188 1.5728-1.8147 3.5899-2.7012 5.7676-2.7012zm-33.215 0.60547c4.0327 0 6.5719 0.68424 8.9512 2.7812 2.5406 2.218 3.832 5.0013 3.832 9.1953 0 4.557-1.3705 7.7433-4.1934 9.6387-2.4196 1.6131-4.6393 2.0957-8.793 2.0957-1.5728 0-1.9355-0.48308-1.9355-1.8945v-20.123c0-1.3308 0.60624-1.6934 2.1387-1.6934zm51.906 30.145c-14.782-0.02075-32.546 0.51146-61.023 2.1465 75.23-0.88231 75.375 2.0777 145.89 0-43.872-0.54341-60.228-2.1119-84.865-2.1465zm74.377 5.5c-2.218 0-3.3882 0.60461-6.332 3.1855-2.097 1.855-2.4198 2.5401-3.6699 7.8633l-3.8711 16.656 2.8633-1.1699 2.3789-9.3965c0.40327-0.28229 0.88614-0.56319 0.9668-0.60352 2.7826-1.7744 4.4763-2.6621 4.9199-2.6621 0.28229 0 0.48437 0.28159 0.48437 0.64453 0 0.48392-0.16003 1.2501-0.72461 3.4277-1.2501 4.8393-1.7344 7.1787-1.7344 8.2676 0 0.48392 0.15992 0.96816 0.60351 1.7344 2.218-1.1292 5.1219-2.9846 7.3398-4.5977l0.2832-1.1699c-3.4278 2.0164-3.9933 2.2988-4.5176 2.2988-0.36294 0-0.60351-0.40359-0.60351-1.0488 0-0.80654 0.24217-1.9764 0.92773-4.5976 1.2905-4.7586 1.9356-7.2176 1.9356-7.3789 0-0.40327-0.32341-0.68555-0.84766-0.68555-0.84687 0-3.629 1.5323-8.6699 4.7988l1.3711-5.4043c0.96785-3.9521 1.3703-5.2008 1.8945-6.209 0.56457-1.1292 1.4112-1.6543 2.5-1.6543 0.52425 0 0.84716 0.04067 2.4199 0.36328l1.7344-2.4609c-0.72589-0.16131-1.0474-0.20117-1.6523-0.20117zm-59.521 0.92773-5.5644 7.6211 0.9668 0.24219c2.5003-2.9439 3.3069-3.831 6.4121-6.9766l-1.8145-0.88672zm-19.564 2.5801c-4.3956 0-8.3871 1.8151-11.613 5.2832-3.2665 3.5085-5.3242 8.4688-5.3242 12.703 0 3.9117 2.1373 6.332 5.6055 6.332 2.5003 0 4.6374-0.64622 8.2266-2.4609-0.6049 2.4196-1.3304 5.0405-1.6934 5.9277-0.80654 2.1777-1.9759 3.0664-4.1133 3.0664-1.1695 0-3.1457-0.16165-4.3555-0.36328l-1.6934 2.6621c1.4518 0.16131 2.0978 0.20117 2.9043 0.20117 3.2262 0 5.9673-1.4514 8.6289-4.5566 1.7341-1.976 2.4594-3.6697 3.6289-8.3477l1.5742-6.291h0.8457l1.8555-1.1289c-1.6131-0.12098-5.3238-0.20312-9.0742-0.20312l-2.459 1.25v0.32422c2.0164-0.12098 3.9914-0.20186 5.8867-0.24219l-1.4512 5.8066c-1.6937 1.6131-4.1137 2.7012-5.9688 2.7012-2.9842 0-4.8379-2.338-4.8379-6.0078 0-7.8638 5.323-15.203 10.969-15.203 1.6534 0 3.0639 0.68472 3.8301 1.8945 0.52426 0.80654 0.72679 1.4918 0.96876 3.1855l2.9844-3.3457c-0.76621-2.2986-2.2594-3.1875-5.3242-3.1875zm-28.486 5.9297c-1.0082 0.28229-1.3705 0.40164-2.8223 1.0469 0.40327 1.0485 0.52344 1.7354 0.52344 2.8242 0 2.6616-1.0087 5.8058-2.6621 8.3867-1.4114 2.1777-3.4667 3.873-4.7168 3.873-0.80654 0-1.3711-0.76663-1.3711-1.8555 0-1.7341 0.60404-3.8316 3.2656-11.816-1.0888 0.36294-1.5326 0.48471-2.9844 0.84766-0.24196 0.76621-0.40246 1.3304-0.52344 1.6934-1.4518 4.8393-1.8553 5.7268-3.1055 7.3398-1.5324 2.0164-3.7108 3.5879-4.9609 3.5879-0.68556 0-1.0879-0.68461-1.0879-1.7734 0-1.7341 0.68529-3.9921 1.8145-6.0488 1.0082-1.7341 1.896-2.8647 4.1543-5.123v-0.40234c0-0.08065-0.000689-0.16096-0.04102-0.32226h-0.44336c-0.64523 0.48392-0.96874 0.56445-1.6543 0.56445-1.1695 0-3.5895-0.03975-4.5977-0.08008-0.4436-0.04033-0.8056-0.04102-1.0879-0.04102-0.68556 0-1.1291 0.12005-1.3711 0.40234-0.60491 0.60491-1.4123 2.4611-2.3398 5.4453l0.68555 0.96679c0.76622-1.9357 0.96771-2.4601 1.25-2.9844 0.64523-1.0485 1.3727-1.5312 2.3809-1.5312 0.20164 0 0.72517-0.0013 1.3301 0.03906 0.32262 0.04033 0.68588 0.04102 1.0488 0.04102 0.84687 0 1.1296-0.03998 1.8555-0.32226l-1.3711 1.5332c-1.7341 1.8954-2.2995 2.6204-3.0254 3.9512-1.0485 1.8954-1.6934 4.0328-1.6934 5.7266 0 1.4518 0.88727 2.459 2.1777 2.459 2.097 0 4.4751-1.6936 7.8223-5.4844-0.4436 1.3308-0.60352 2.139-0.60352 3.1875 0 1.4518 0.80661 2.2969 2.1777 2.2969 5.0812 0 12.984-9.8393 12.984-16.211 0-1.0888-0.32225-1.7732-1.0078-2.2168zm46.236 1.3301c-1.6131 0-4.1949 1.169-6.5742 2.9434-2.5809 1.9357-4.3945 6.1307-4.3945 10.123 0 2.46 1.3705 4.0312 3.5078 4.0312 1.1292 0 2.2582-0.40324 4.1133-1.3711 2.0164-1.1292 3.3483-2.1357 4.0742-3.1035 1.6131-2.1777 2.9024-6.1315 2.9024-8.9141 0-2.1777-1.4916-3.709-3.6289-3.709zm11.59 0c-0.52426 0-4.0733 1.7345-6.5332 3.2266l-0.12109 1.0879c2.1777-1.1292 2.4204-1.209 2.9043-1.209 0.52425 0 0.76562 0.28112 0.76562 0.8457s-0.40279 2.4612-0.88672 4.1953l-2.4199 8.832 3.1055-1.1699 3.0234-11.494c1.35-1.006 2.28-1.408 3.37-1.408 0.88719 0 1.4108 0.32248 2.1367 1.25l1.209-3.832c-0.76621-0.24196-1.0889-0.32227-1.4922-0.32227-0.72588 0-1.5713 0.36269-2.6602 1.1289l-2.3789 1.7344c0.0403-0.32262 0.11914-0.52355 0.11914-0.64453 0.32262-1.3308 0.36328-1.5738 0.36328-1.7754 0-0.24196-0.24115-0.44336-0.52343-0.44336zm16.041 0c-1.6534 0-2.4202 0.16141-3.4688 0.80664-1.4518 0.84687-3.1457 2.0975-3.6699 2.6621-1.4921 1.6937-3.1856 7.1378-3.1856 10.404 0 1.9357 0.64612 3.2246 1.6543 3.2246 0.88719 0 2.2169-0.80611 7.2578-4.4356-0.40327 1.855-0.60351 3.1059-0.60351 3.5898 0 0.52425 0.24126 0.8457 0.64453 0.8457 0.48392 0 0.48477 0.00004 3.7109-2.0566 1.1695-0.76622 2.0965-1.4099 3.6289-2.5391l0.041-1.1699c-3.0245 2.0164-3.6299 2.3789-4.0332 2.3789-0.28229 0-0.48437-0.32271-0.48437-0.80664 0-1.0485 0.96814-5.4842 2.4199-10.848 0.4436-0.60491 0.52469-0.72528 1.1699-1.4512-1.9357-0.4436-3.348-0.60547-5.082-0.60547zm15.766 0c-0.72589 0-1.1693 0.16106-2.6211 1.1289-3.0245 1.8954-3.6714 2.5009-4.5586 4.1543-1.1292 2.1777-1.9746 5.6052-1.9746 8.1055 0 2.339 1.0883 3.709 2.9434 3.709 1.9357 0 5.2423-1.6113 8.9121-4.3535l0.0801-1.291c-3.1052 2.218-5.2427 3.3476-6.5332 3.3476-1.4518 0-2.2988-1.1307-2.2988-3.0664s0.48574-4.5167 1.252-6.4121c0.80654-2.1373 1.854-3.2246 3.0234-3.2246 0.96786 0 1.4917 0.76467 1.6934 2.5391l2.3398-1.3711c0.0403-0.20164 0.041-0.40303 0.041-0.44336 0-1.7341-0.88738-2.8223-2.2988-2.8223zm-18.104 1.8555c0.72589 0 1.976 0.20082 3.4277 0.52344-0.80654 3.0649-1.0905 3.9917-1.1308 4.1934-0.24197 1.0082-0.44359 2.0179-0.68555 3.0664-0.0403 0.20163-0.15969 0.68426-0.36133 1.4102l-0.76758 0.52539c-2.3793 1.7341-3.5886 2.4199-4.3144 2.4199-0.64523 0-1.0488-0.72711-1.0488-2.0176 0-2.0164 0.64612-4.758 1.6543-7.0566 0.96785-2.218 1.8554-3.0645 3.2266-3.0645zm-27.391 0.03906c1.6131 0 2.6211 1.5726 2.6211 3.9922 0 1.6937-0.56409 3.7916-1.5723 5.7676-1.1292 2.2986-2.5808 3.5488-4.1133 3.5488-1.6534 0-2.7012-1.4924-2.7012-3.791 0-4.6779 2.9427-9.5176 5.7656-9.5176z"/>
</svg>
